# xmcd
#
# Track frame offsets:
#	150
#	15697
#	29480
#	50235
#	63295
#	76620
#	92842
#	115892
#	129607
#
# Disc length: 2031 seconds
#
# Revision: 4
# Processed by: cddbd v1.5.1PL0 Copyright (c) Steve Scherf et al.
# Submitted via: dBpowerAMP V4.0
#
DISCID=7207ed09
DTITLE=DanSeals,McCamey,TX - EarlyDanSeals;CapitolCDP7-95561-2
DYEAR=1991
DGENRE=Country
TTITLE0=MyBaby'sGotGoodTiming(DSeals&BobMcDill;DanSeals,McCamey,TX)
TTITLE1=ThreeTimeLoser(DanSeals,McCamey,TX)
TTITLE2=OnTheFrontline(DanSeals,McCamey,TX)
TTITLE3=SheThinksIStillCare(DickeyLee;DanSeals,McCamey,TX)
TTITLE4=Lullaby(DSeals&RafeVanHoy;DanSeals,McCamey,TX&EmmylouHarris)
TTITLE5=MyOldYellowCar(ThomSchuyler;DanSeals,McCamey,TX)
TTITLE6=YouStillMoveMe(DanSeals,McCamey,TX)
TTITLE7=OhTheseNights(DSeals&RafeVanHoy;DanSeals,McCamey,TX)
TTITLE8=InSanAntone(DanSeals,McCamey,TX)
EXTD=more info\nMillenniumMusicProjectFormat, syntax as follows:\nTitle{Subtitle}[info](Lyricist;Composer;Date,Artist,Location)[info]\ncorrections to: windking3@yahoo.com
EXTT0=
EXTT1=
EXTT2=
EXTT3=
EXTT4=
EXTT5=
EXTT6=
EXTT7=
EXTT8=
PLAYORDER=
